<mxfile host="65bd71144e">
    <diagram id="118SRyxPJQSLUwDJfz0N" name="Page-1">
        <mxGraphModel dx="884" dy="540" grid="1" gridSize="10" guides="1" tooltips="1" connect="1" arrows="1" fold="1" page="1" pageScale="1" pageWidth="850" pageHeight="1100" math="0" shadow="0">
            <root>
                <mxCell id="0"/>
                <mxCell id="1" parent="0"/>
                <mxCell id="2" value="" style="rounded=0;whiteSpace=wrap;html=1;" vertex="1" parent="1">
                    <mxGeometry x="230" y="40" width="390" height="480" as="geometry"/>
                </mxCell>
                <mxCell id="3" value="&lt;font style=&quot;font-size: 24px&quot;&gt;Game&lt;/font&gt;" style="text;html=1;strokeColor=none;fillColor=none;align=center;verticalAlign=middle;whiteSpace=wrap;rounded=0;" vertex="1" parent="1">
                    <mxGeometry x="348" y="40" width="155" height="50" as="geometry"/>
                </mxCell>
                <mxCell id="4" value="" style="rounded=0;whiteSpace=wrap;html=1;fontSize=24;" vertex="1" parent="1">
                    <mxGeometry x="250" y="90" width="350" height="410" as="geometry"/>
                </mxCell>
                <mxCell id="5" value="Board" style="text;html=1;strokeColor=none;fillColor=none;align=center;verticalAlign=middle;whiteSpace=wrap;rounded=0;fontSize=24;" vertex="1" parent="1">
                    <mxGeometry x="378" y="100" width="95" height="30" as="geometry"/>
                </mxCell>
                <mxCell id="6" value="" style="rounded=0;whiteSpace=wrap;html=1;fontSize=24;" vertex="1" parent="1">
                    <mxGeometry x="275" y="180" width="100" height="100" as="geometry"/>
                </mxCell>
                <mxCell id="7" value="" style="rounded=0;whiteSpace=wrap;html=1;fontSize=24;" vertex="1" parent="1">
                    <mxGeometry x="375" y="180" width="100" height="100" as="geometry"/>
                </mxCell>
                <mxCell id="8" value="" style="rounded=0;whiteSpace=wrap;html=1;fontSize=24;" vertex="1" parent="1">
                    <mxGeometry x="475" y="180" width="100" height="100" as="geometry"/>
                </mxCell>
                <mxCell id="9" value="" style="rounded=0;whiteSpace=wrap;html=1;fontSize=24;" vertex="1" parent="1">
                    <mxGeometry x="275" y="280" width="100" height="100" as="geometry"/>
                </mxCell>
                <mxCell id="10" value="" style="rounded=0;whiteSpace=wrap;html=1;fontSize=24;" vertex="1" parent="1">
                    <mxGeometry x="375" y="280" width="100" height="100" as="geometry"/>
                </mxCell>
                <mxCell id="11" value="" style="rounded=0;whiteSpace=wrap;html=1;fontSize=24;" vertex="1" parent="1">
                    <mxGeometry x="475" y="280" width="100" height="100" as="geometry"/>
                </mxCell>
                <mxCell id="12" value="" style="rounded=0;whiteSpace=wrap;html=1;fontSize=24;" vertex="1" parent="1">
                    <mxGeometry x="275" y="380" width="100" height="100" as="geometry"/>
                </mxCell>
                <mxCell id="13" value="" style="rounded=0;whiteSpace=wrap;html=1;fontSize=24;" vertex="1" parent="1">
                    <mxGeometry x="375" y="380" width="100" height="100" as="geometry"/>
                </mxCell>
                <mxCell id="14" value="" style="rounded=0;whiteSpace=wrap;html=1;fontSize=24;" vertex="1" parent="1">
                    <mxGeometry x="475" y="380" width="100" height="100" as="geometry"/>
                </mxCell>
                <mxCell id="15" value="Square" style="text;html=1;strokeColor=none;fillColor=none;align=center;verticalAlign=middle;whiteSpace=wrap;rounded=0;fontSize=24;" vertex="1" parent="1">
                    <mxGeometry x="282.5" y="210" width="85" height="40" as="geometry"/>
                </mxCell>
                <mxCell id="16" value="Square" style="text;html=1;strokeColor=none;fillColor=none;align=center;verticalAlign=middle;whiteSpace=wrap;rounded=0;fontSize=24;" vertex="1" parent="1">
                    <mxGeometry x="383" y="210" width="85" height="40" as="geometry"/>
                </mxCell>
                <mxCell id="17" value="Square" style="text;html=1;strokeColor=none;fillColor=none;align=center;verticalAlign=middle;whiteSpace=wrap;rounded=0;fontSize=24;" vertex="1" parent="1">
                    <mxGeometry x="482.5" y="210" width="85" height="40" as="geometry"/>
                </mxCell>
                <mxCell id="18" value="Square" style="text;html=1;strokeColor=none;fillColor=none;align=center;verticalAlign=middle;whiteSpace=wrap;rounded=0;fontSize=24;" vertex="1" parent="1">
                    <mxGeometry x="283" y="310" width="85" height="40" as="geometry"/>
                </mxCell>
                <mxCell id="19" value="Square" style="text;html=1;strokeColor=none;fillColor=none;align=center;verticalAlign=middle;whiteSpace=wrap;rounded=0;fontSize=24;" vertex="1" parent="1">
                    <mxGeometry x="383.5" y="310" width="85" height="40" as="geometry"/>
                </mxCell>
                <mxCell id="20" value="Square" style="text;html=1;strokeColor=none;fillColor=none;align=center;verticalAlign=middle;whiteSpace=wrap;rounded=0;fontSize=24;" vertex="1" parent="1">
                    <mxGeometry x="483" y="310" width="85" height="40" as="geometry"/>
                </mxCell>
                <mxCell id="21" value="Square" style="text;html=1;strokeColor=none;fillColor=none;align=center;verticalAlign=middle;whiteSpace=wrap;rounded=0;fontSize=24;" vertex="1" parent="1">
                    <mxGeometry x="283.5" y="410" width="85" height="40" as="geometry"/>
                </mxCell>
                <mxCell id="22" value="Square" style="text;html=1;strokeColor=none;fillColor=none;align=center;verticalAlign=middle;whiteSpace=wrap;rounded=0;fontSize=24;" vertex="1" parent="1">
                    <mxGeometry x="384" y="410" width="85" height="40" as="geometry"/>
                </mxCell>
                <mxCell id="23" value="Square" style="text;html=1;strokeColor=none;fillColor=none;align=center;verticalAlign=middle;whiteSpace=wrap;rounded=0;fontSize=24;" vertex="1" parent="1">
                    <mxGeometry x="483.5" y="410" width="85" height="40" as="geometry"/>
                </mxCell>
            </root>
        </mxGraphModel>
    </diagram>
</mxfile>